PathFileType	4	(X/Y/Z)	Patient4_TMGait_0pt4_01_left_37.trc.trc
DataRate	CameraRate	NumFrames	NumMarkers	Units	OrigDataRate	OrigDataStartFrame	OrigNumFrames
73.684210526316	73.684210526316	5	33	mm	73.684210526316	71	       141
Frame#	Time	Sacral			L.Shoulder			Chest			R.Shoulder			Neck			R.ASIS			L.ASIS			R.Thigh.Superior			R.Thigh.Lateral			R.Thigh.Inferior			R.Patella			L.Thigh.Superior			L.Thigh.Lateral			L.Thigh.Inferior			L.Patella			L.Shank.Superior			L.Shank.Lateral			L.Shank.Inferior			R.Shank.Superior			R.Shank.Lateral			R.Shank.Inferior			R.Heel			R.Midfoot.Superior			R.Midfoot.Lateral			R.Toe			L.Heel			L.Midfoot.Lateral			L.Midfoot.Superior			L.Toe			L.Elbow			L.Wrist			R.Elbow			R.Wrist			
		X1	Y1	Z1	X2	Y2	Z2	X3	Y3	Z3	X4	Y4	Z4	X5	Y5	Z5	X6	Y6	Z6	X7	Y7	Z7	X8	Y8	Z8	X9	Y9	Z9	X10	Y10	Z10	X11	Y11	Z11	X12	Y12	Z12	X13	Y13	Z13	X14	Y14	Z14	X15	Y15	Z15	X16	Y16	Z16	X17	Y17	Z17	X18	Y18	Z18	X19	Y19	Z19	X20	Y20	Z20	X21	Y21	Z21	X22	Y22	Z22	X23	Y23	Z23	X24	Y24	Z24	X25	Y25	Z25	X26	Y26	Z26	X27	Y27	Z27	X28	Y28	Z28	X29	Y29	Z29	X30	Y30	Z30	X31	Y31	Z31	X32	Y32	Z32	X33	Y33	Z33	

71	47.150000000000	802.837556210796	1003.647529553937	430.927598916533	998.255300403050	1431.855608039868	253.171663098529	1081.530600580019	1367.541266081911	426.608145188588	978.386224327411	1443.460556617936	588.717629600635	964.231231138492	1496.745213548243	407.723178686813	1024.651834119793	949.253183380317	567.263983475689	1032.333406329201	964.954791295820	289.013609918484	1089.647193597332	761.427082911881	545.029437584128	1038.026756163983	645.225201327274	618.489437268172	1122.888504271784	599.860394023137	538.000892442006	1150.939811097861	519.281763502497	554.948061803575	1042.637644126887	738.375654217196	319.647340307314	932.793247585135	637.193169704158	255.236857930934	998.432725934661	547.896065745579	319.172823331496	986.375940566974	482.145925039529	328.467029813821	957.082394173112	413.768519853448	320.709114949803	859.693157196219	304.412333198144	270.639946211515	904.832422162676	190.928955856215	344.010478626877	1135.374669146238	433.768372250711	568.178873207479	1083.350171374980	321.673726270027	634.984686377516	1152.289366194790	234.751358387924	583.972892066537	1060.235570337200	48.131302499051	559.187831832735	1223.820520222064	120.126312746955	598.257459545553	1144.307240999025	46.458879902911	633.177256513889	1347.503165272408	81.701704006760	624.757631548154	772.352226432514	39.236596877195	392.637562666020	843.992309954398	35.089164896886	309.849445631035	927.948348178187	95.443379378120	334.691025918550	1056.115995833647	42.434105457672	303.488884854571	1032.066020748274	1088.214907093735	120.221977661255	1263.918296629171	968.160140932754	119.216699454246	846.417922421837	1124.192997962602	697.432754277601	849.862809162571	861.925335712452	701.623718970466	
72	47.163571428571	803.824941733000	1002.666138740834	432.594864188278	998.258240219816	1431.201202560636	255.232070125204	1081.577193441963	1367.104887486593	428.673241651392	978.045628975354	1442.590769682553	590.742060139322	963.893901933097	1495.915155931661	409.718398828822	1025.662424293147	948.038185834918	569.015815695968	1033.359822075835	964.348237733042	290.821249481507	1090.488279043938	759.793156501927	546.640268546307	1037.290833946571	643.095511499434	618.776572546642	1122.535070748194	598.165626943894	538.740037812054	1149.529691461625	517.344095694637	555.155905094894	1041.955997397153	737.355503349652	320.912384039926	930.901362542462	637.186993810784	256.320625311662	995.593349516193	547.199661995929	320.069192659524	983.147350341274	481.450461460187	329.100545592214	953.283882947528	413.433200429574	321.321240072967	855.174614332726	304.753362606634	271.180884856836	899.911562873371	190.820605774451	344.171652636243	1133.315431134823	431.162526622557	568.068598412631	1079.631199432133	319.374518705884	633.776033078271	1147.979128153660	232.111902670980	582.919117071156	1054.506767671748	46.759247730511	556.492687150281	1217.906036007803	117.379082380020	597.348325045283	1137.523014527595	44.810046060802	631.601762777609	1341.001707029281	78.315394882053	625.577622998372	766.907099653701	39.241553134161	392.611962130834	838.536507508827	35.093567213689	309.839948040258	922.496800922449	95.427144193339	334.690252573596	1050.632358727919	42.363786080613	303.471081021870	1033.791670626003	1087.774421051122	122.289774433698	1265.938703918620	968.272486121921	121.108525886101	848.433761670985	1122.251825193512	699.587054127703	855.669041383827	860.098182040167	703.727125888027	
73	47.177142857143	804.975273678303	1001.538864492484	434.529626378057	998.100330717584	1430.505425765734	257.515157689049	1081.586621145018	1366.675545142953	430.922325274447	977.664855427282	1441.622452285955	593.003660084648	963.443804899253	1495.012710749209	411.938786477491	1026.980156340429	946.720829609779	570.853641868737	1034.479660410212	963.699598833413	292.748850691802	1092.021425178825	758.283617752879	548.136272918122	1037.234000989137	641.003623312564	618.882818251782	1122.987030653897	596.636648049730	539.414147263527	1148.763300743433	515.225356843446	555.279687347412	1041.478084884081	736.295613627581	322.232079281959	929.255307911544	637.115117794186	257.529724599372	993.062683960122	546.447954337267	321.076839143627	980.295744347755	480.636364769742	329.856221113900	949.757318587655	412.984557345530	322.060402692150	850.843335229816	305.075785875425	271.825910494984	895.056410437848	190.633993022408	344.401137793817	1131.425771877538	428.243367329213	567.799054112719	1075.463000734908	317.123280716396	632.522257970543	1142.501918746271	229.077603055008	581.716533175123	1046.355813466269	45.707899788155	553.952355069067	1209.993000476193	114.109293925673	596.292605824323	1128.408296647718	43.152283485016	630.086856681521	1332.360215392231	73.796035158962	626.100021169647	761.447344523643	39.191166199109	392.593275210665	833.071095438581	35.074138609195	309.843168317904	917.025410532768	95.408676256026	334.712780536226	1045.143832119242	42.288212486714	303.454123357146	1035.248286962081	1087.322765197953	124.429008841633	1267.436853802868	967.818742921490	123.073877599351	850.990500184183	1119.966934711211	702.060149993879	862.710979764433	858.033628631739	706.224062340200	
74	47.190714285714	806.283924108461	1000.298675718759	436.719905082811	997.806665160951	1429.785295514766	260.020934071628	1081.580871638357	1366.262773905420	433.356335216752	977.279271938630	1440.580700907087	595.504610710469	962.914089767685	1494.066751172891	414.385611198914	1028.592051535178	945.338913860423	572.773381205399	1035.677616038824	963.024093106175	294.793066224104	1094.111776526487	756.849016937351	549.539940568434	1037.698684001744	638.979932391389	618.876741530088	1124.050513213515	595.230510998955	540.050045052762	1148.469348009626	512.963721112848	555.303475659575	1041.238114513856	735.215383232072	323.584096379517	927.901476400897	636.968293436180	258.869117995208	990.915736342048	545.642984022608	322.193848099996	977.903683346202	479.687524907008	330.732669690738	946.573766382055	412.408238997589	322.927552779253	846.744216936881	305.385037006490	272.583921703269	890.283552834293	190.362523215691	344.701203842053	1129.713264409277	425.141048030371	567.407232791344	1071.163713597832	314.937327417919	631.348354979547	1136.343782049850	225.805622324687	580.433421085487	1036.661239382677	44.881717108480	551.733449021660	1200.856611523771	110.593082598260	595.123640487757	1117.919148750597	41.561475069969	628.727969388509	1322.470133072155	68.679151655651	626.253278017651	755.968641049371	39.099135345128	392.579123834168	827.597602650879	35.029949047897	309.862110839068	911.542744632818	95.388997377372	334.755416733078	1039.658902353853	42.196647716783	303.434834398528	1036.403788173594	1086.857171557195	126.655419035837	1268.377798801962	966.797288053048	125.089427190734	854.056582133710	1117.405689240235	704.834230295145	870.897663398252	855.819276913175	709.101531911082	
75	47.204285714286	807.740452176852	998.995081483370	439.149299329681	997.404594371769	1429.075380881276	262.743713538177	1081.581658906194	1365.889212667772	435.969286774943	976.928603036746	1439.505932970012	598.240969019415	962.339820002169	1493.121632170285	417.057893345545	1030.469034802059	943.953161933867	574.772990081719	1036.935483223349	962.349731852559	296.951930589086	1096.596678312480	755.466413965851	550.878782991019	1038.532045302063	637.080180487075	618.845075644404	1125.506975370044	593.925633269970	540.667961212715	1148.475169005678	510.634021062826	555.234530802070	1041.276450886475	734.147670885695	324.959525114364	926.900993996930	636.741679969358	260.347474500111	989.249829318797	544.794994945614	323.421733848424	976.072243915575	478.593367479504	331.724970572630	943.821465914406	411.697666210023	323.918829834670	842.933605250806	305.700026193822	273.463754504217	885.620193103166	190.012885917219	345.070403724653	1128.182231023169	422.016070243813	566.949977444266	1067.036109984912	312.860749909958	630.369580327648	1129.989358753675	222.490744673815	579.148299335523	1026.309880579752	44.219466163382	549.946475545209	1191.255841114340	107.130401398970	593.895904563997	1106.982420858584	40.130638117979	627.599273041555	1312.185738326080	63.515150729284	626.049738904174	750.469616855603	39.001733012288	392.565373696484	822.120382231806	34.969246980805	309.898354424020	906.067156862650	95.372145588788	334.809472829580	1034.189059988399	42.077503492280	303.408597089664	1037.230592869260	1086.386342817623	128.997589686610	1268.717170927414	965.205815706261	127.136778288811	857.617194863447	1114.647389202191	707.888205159779	880.138509618450	853.554087307531	712.338384803342	
